# Goxel 0.7.2
v -7 0 0 1.000000 1.000000 1.000000
v -7 1 0 1.000000 1.000000 1.000000
v -6 1 0 1.000000 1.000000 1.000000
v -6 0 0 1.000000 1.000000 1.000000
v -7 0 1 1.000000 1.000000 1.000000
v -7 1 1 1.000000 1.000000 1.000000
v -5 1 0 1.000000 1.000000 1.000000
v -5 0 0 1.000000 1.000000 1.000000
v -4 1 0 1.000000 1.000000 1.000000
v -4 0 0 1.000000 1.000000 1.000000
v -3 1 0 1.000000 1.000000 1.000000
v -3 0 0 1.000000 1.000000 1.000000
v -2 1 0 1.000000 1.000000 1.000000
v -2 0 0 1.000000 1.000000 1.000000
v -1 1 0 1.000000 1.000000 1.000000
v -1 0 0 1.000000 1.000000 1.000000
v 0 1 0 1.000000 1.000000 1.000000
v 0 0 0 1.000000 1.000000 1.000000
v -6 2 0 1.000000 1.000000 1.000000
v -7 2 0 1.000000 1.000000 1.000000
v -7 2 1 1.000000 1.000000 1.000000
v -6 2 1 1.000000 1.000000 1.000000
v -5 2 0 1.000000 1.000000 1.000000
v -5 2 1 1.000000 1.000000 1.000000
v -4 2 0 1.000000 1.000000 1.000000
v -4 2 1 1.000000 1.000000 1.000000
v -3 2 0 1.000000 1.000000 1.000000
v -3 2 1 1.000000 1.000000 1.000000
v -2 2 0 1.000000 1.000000 1.000000
v -2 2 1 1.000000 1.000000 1.000000
v -1 2 0 1.000000 1.000000 1.000000
v -1 2 1 1.000000 1.000000 1.000000
v 0 2 0 1.000000 1.000000 1.000000
v 0 2 1 1.000000 1.000000 1.000000
v -7 0 2 1.000000 1.000000 1.000000
v -7 1 2 1.000000 1.000000 1.000000
v -7 2 2 1.000000 1.000000 1.000000
v -6 2 2 1.000000 1.000000 1.000000
v -5 2 2 1.000000 1.000000 1.000000
v -4 2 2 1.000000 1.000000 1.000000
v -3 2 2 1.000000 1.000000 1.000000
v -2 2 2 1.000000 1.000000 1.000000
v -1 2 2 1.000000 1.000000 1.000000
v 0 2 2 1.000000 1.000000 1.000000
v -6 0 3 1.000000 1.000000 1.000000
v -6 1 3 1.000000 1.000000 1.000000
v -7 1 3 1.000000 1.000000 1.000000
v -7 0 3 1.000000 1.000000 1.000000
v -5 0 3 1.000000 1.000000 1.000000
v -5 1 3 1.000000 1.000000 1.000000
v -4 0 3 1.000000 1.000000 1.000000
v -4 1 3 1.000000 1.000000 1.000000
v -3 0 3 1.000000 1.000000 1.000000
v -3 1 3 1.000000 1.000000 1.000000
v -2 0 3 1.000000 1.000000 1.000000
v -2 1 3 1.000000 1.000000 1.000000
v -1 0 3 1.000000 1.000000 1.000000
v -1 1 3 1.000000 1.000000 1.000000
v 0 0 3 1.000000 1.000000 1.000000
v 0 1 3 1.000000 1.000000 1.000000
v -7 2 3 1.000000 1.000000 1.000000
v -6 2 3 1.000000 1.000000 1.000000
v -5 2 3 1.000000 1.000000 1.000000
v -4 2 3 1.000000 1.000000 1.000000
v -3 2 3 1.000000 1.000000 1.000000
v -2 2 3 1.000000 1.000000 1.000000
v -1 2 3 1.000000 1.000000 1.000000
v 0 2 3 1.000000 1.000000 1.000000
v 1 1 0 1.000000 1.000000 1.000000
v 1 0 0 1.000000 1.000000 1.000000
v 2 1 0 1.000000 1.000000 1.000000
v 2 0 0 1.000000 1.000000 1.000000
v 3 1 0 1.000000 1.000000 1.000000
v 3 0 0 1.000000 1.000000 1.000000
v 4 1 0 1.000000 1.000000 1.000000
v 4 0 0 1.000000 1.000000 1.000000
v 5 1 0 1.000000 1.000000 1.000000
v 5 0 0 1.000000 1.000000 1.000000
v 6 1 0 1.000000 1.000000 1.000000
v 6 0 0 1.000000 1.000000 1.000000
v 7 1 0 1.000000 1.000000 1.000000
v 7 0 0 1.000000 1.000000 1.000000
v 8 1 0 1.000000 1.000000 1.000000
v 8 0 0 1.000000 1.000000 1.000000
v 9 1 0 1.000000 1.000000 1.000000
v 8 1 1 1.000000 1.000000 1.000000
v 9 1 1 1.000000 1.000000 1.000000
v 9 0 0 1.000000 1.000000 1.000000
v 10 1 0 1.000000 1.000000 1.000000
v 10 1 1 1.000000 1.000000 1.000000
v 10 0 0 1.000000 1.000000 1.000000
v 10 0 1 1.000000 1.000000 1.000000
v 1 2 0 1.000000 1.000000 1.000000
v 1 2 1 1.000000 1.000000 1.000000
v 2 2 0 1.000000 1.000000 1.000000
v 2 2 1 1.000000 1.000000 1.000000
v 3 2 0 1.000000 1.000000 1.000000
v 3 2 1 1.000000 1.000000 1.000000
v 4 2 0 1.000000 1.000000 1.000000
v 4 2 1 1.000000 1.000000 1.000000
v 5 2 0 1.000000 1.000000 1.000000
v 5 2 1 1.000000 1.000000 1.000000
v 6 2 0 1.000000 1.000000 1.000000
v 6 2 1 1.000000 1.000000 1.000000
v 7 2 0 1.000000 1.000000 1.000000
v 7 2 1 1.000000 1.000000 1.000000
v 8 2 0 1.000000 1.000000 1.000000
v 8 2 1 1.000000 1.000000 1.000000
v 9 0 1 1.000000 1.000000 1.000000
v 10 0 2 1.000000 1.000000 1.000000
v 9 0 2 1.000000 1.000000 1.000000
v 11 0 1 1.000000 1.000000 1.000000
v 11 0 2 1.000000 1.000000 1.000000
v 11 1 1 1.000000 1.000000 1.000000
v 10 1 2 1.000000 1.000000 1.000000
v 11 1 2 1.000000 1.000000 1.000000
v 1 2 2 1.000000 1.000000 1.000000
v 2 2 2 1.000000 1.000000 1.000000
v 3 2 2 1.000000 1.000000 1.000000
v 4 2 2 1.000000 1.000000 1.000000
v 5 2 2 1.000000 1.000000 1.000000
v 6 2 2 1.000000 1.000000 1.000000
v 7 2 2 1.000000 1.000000 1.000000
v 8 2 2 1.000000 1.000000 1.000000
v 9 2 1 1.000000 1.000000 1.000000
v 9 2 2 1.000000 1.000000 1.000000
v 10 2 1 1.000000 1.000000 1.000000
v 10 2 2 1.000000 1.000000 1.000000
v 1 0 3 1.000000 1.000000 1.000000
v 1 1 3 1.000000 1.000000 1.000000
v 2 0 3 1.000000 1.000000 1.000000
v 2 1 3 1.000000 1.000000 1.000000
v 3 0 3 1.000000 1.000000 1.000000
v 3 1 3 1.000000 1.000000 1.000000
v 4 0 3 1.000000 1.000000 1.000000
v 4 1 3 1.000000 1.000000 1.000000
v 5 0 3 1.000000 1.000000 1.000000
v 5 1 3 1.000000 1.000000 1.000000
v 6 0 3 1.000000 1.000000 1.000000
v 6 1 3 1.000000 1.000000 1.000000
v 7 0 3 1.000000 1.000000 1.000000
v 7 1 3 1.000000 1.000000 1.000000
v 8 0 3 1.000000 1.000000 1.000000
v 8 1 3 1.000000 1.000000 1.000000
v 8 0 2 1.000000 1.000000 1.000000
v 9 0 3 1.000000 1.000000 1.000000
v 9 1 3 1.000000 1.000000 1.000000
v 10 0 3 1.000000 1.000000 1.000000
v 10 1 3 1.000000 1.000000 1.000000
v 1 2 3 1.000000 1.000000 1.000000
v 2 2 3 1.000000 1.000000 1.000000
v 3 2 3 1.000000 1.000000 1.000000
v 4 2 3 1.000000 1.000000 1.000000
v 5 2 3 1.000000 1.000000 1.000000
v 6 2 3 1.000000 1.000000 1.000000
v 7 2 3 1.000000 1.000000 1.000000
v 8 2 3 1.000000 1.000000 1.000000
v 9 2 3 1.000000 1.000000 1.000000
v 10 2 3 1.000000 1.000000 1.000000
v -7 -1 0 1.000000 1.000000 1.000000
v -6 -1 0 1.000000 1.000000 1.000000
v -6 -1 1 1.000000 1.000000 1.000000
v -7 -1 1 1.000000 1.000000 1.000000
v -5 -1 0 1.000000 1.000000 1.000000
v -5 -1 1 1.000000 1.000000 1.000000
v -4 -1 0 1.000000 1.000000 1.000000
v -4 -1 1 1.000000 1.000000 1.000000
v -3 -1 0 1.000000 1.000000 1.000000
v -3 -1 1 1.000000 1.000000 1.000000
v -2 -1 0 1.000000 1.000000 1.000000
v -2 -1 1 1.000000 1.000000 1.000000
v -1 -1 0 1.000000 1.000000 1.000000
v -1 -1 1 1.000000 1.000000 1.000000
v 0 -1 0 1.000000 1.000000 1.000000
v 0 -1 1 1.000000 1.000000 1.000000
v -6 -1 2 1.000000 1.000000 1.000000
v -7 -1 2 1.000000 1.000000 1.000000
v -5 -1 2 1.000000 1.000000 1.000000
v -4 -1 2 1.000000 1.000000 1.000000
v -3 -1 2 1.000000 1.000000 1.000000
v -2 -1 2 1.000000 1.000000 1.000000
v -1 -1 2 1.000000 1.000000 1.000000
v 0 -1 2 1.000000 1.000000 1.000000
v -6 -1 3 1.000000 1.000000 1.000000
v -7 -1 3 1.000000 1.000000 1.000000
v -5 -1 3 1.000000 1.000000 1.000000
v -4 -1 3 1.000000 1.000000 1.000000
v -3 -1 3 1.000000 1.000000 1.000000
v -2 -1 3 1.000000 1.000000 1.000000
v -1 -1 3 1.000000 1.000000 1.000000
v 0 -1 3 1.000000 1.000000 1.000000
v 1 -1 0 1.000000 1.000000 1.000000
v 1 -1 1 1.000000 1.000000 1.000000
v 2 -1 0 1.000000 1.000000 1.000000
v 2 -1 1 1.000000 1.000000 1.000000
v 3 -1 0 1.000000 1.000000 1.000000
v 3 -1 1 1.000000 1.000000 1.000000
v 4 -1 0 1.000000 1.000000 1.000000
v 4 -1 1 1.000000 1.000000 1.000000
v 5 -1 0 1.000000 1.000000 1.000000
v 5 -1 1 1.000000 1.000000 1.000000
v 6 -1 0 1.000000 1.000000 1.000000
v 6 -1 1 1.000000 1.000000 1.000000
v 7 -1 0 1.000000 1.000000 1.000000
v 7 -1 1 1.000000 1.000000 1.000000
v 8 -1 0 1.000000 1.000000 1.000000
v 8 -1 1 1.000000 1.000000 1.000000
v 9 -1 0 1.000000 1.000000 1.000000
v 9 -1 1 1.000000 1.000000 1.000000
v 10 -1 0 1.000000 1.000000 1.000000
v 10 -1 1 1.000000 1.000000 1.000000
v 1 -1 2 1.000000 1.000000 1.000000
v 2 -1 2 1.000000 1.000000 1.000000
v 3 -1 2 1.000000 1.000000 1.000000
v 4 -1 2 1.000000 1.000000 1.000000
v 5 -1 2 1.000000 1.000000 1.000000
v 6 -1 2 1.000000 1.000000 1.000000
v 7 -1 2 1.000000 1.000000 1.000000
v 8 -1 2 1.000000 1.000000 1.000000
v 9 -1 2 1.000000 1.000000 1.000000
v 1 -1 3 1.000000 1.000000 1.000000
v 2 -1 3 1.000000 1.000000 1.000000
v 3 -1 3 1.000000 1.000000 1.000000
v 4 -1 3 1.000000 1.000000 1.000000
v 5 -1 3 1.000000 1.000000 1.000000
v 6 -1 3 1.000000 1.000000 1.000000
v 7 -1 3 1.000000 1.000000 1.000000
v 8 -1 3 1.000000 1.000000 1.000000
vn 0 0 -1
vn -1 0 0
vn 0 1 0
vn 0 0 1
vn 1 0 0
vn 0 -1 0
f 1//1 2//1 3//1 4//1
f 1//2 5//2 6//2 2//2
f 4//1 3//1 7//1 8//1
f 8//1 7//1 9//1 10//1
f 10//1 9//1 11//1 12//1
f 12//1 11//1 13//1 14//1
f 14//1 13//1 15//1 16//1
f 16//1 15//1 17//1 18//1
f 19//3 20//3 21//3 22//3
f 2//1 20//1 19//1 3//1
f 2//2 6//2 21//2 20//2
f 23//3 19//3 22//3 24//3
f 3//1 19//1 23//1 7//1
f 25//3 23//3 24//3 26//3
f 7//1 23//1 25//1 9//1
f 27//3 25//3 26//3 28//3
f 9//1 25//1 27//1 11//1
f 29//3 27//3 28//3 30//3
f 11//1 27//1 29//1 13//1
f 31//3 29//3 30//3 32//3
f 13//1 29//1 31//1 15//1
f 33//3 31//3 32//3 34//3
f 15//1 31//1 33//1 17//1
f 5//2 35//2 36//2 6//2
f 22//3 21//3 37//3 38//3
f 6//2 36//2 37//2 21//2
f 24//3 22//3 38//3 39//3
f 26//3 24//3 39//3 40//3
f 28//3 26//3 40//3 41//3
f 30//3 28//3 41//3 42//3
f 32//3 30//3 42//3 43//3
f 34//3 32//3 43//3 44//3
f 45//4 46//4 47//4 48//4
f 35//2 48//2 47//2 36//2
f 49//4 50//4 46//4 45//4
f 51//4 52//4 50//4 49//4
f 53//4 54//4 52//4 51//4
f 55//4 56//4 54//4 53//4
f 57//4 58//4 56//4 55//4
f 59//4 60//4 58//4 57//4
f 38//3 37//3 61//3 62//3
f 46//4 62//4 61//4 47//4
f 36//2 47//2 61//2 37//2
f 39//3 38//3 62//3 63//3
f 50//4 63//4 62//4 46//4
f 40//3 39//3 63//3 64//3
f 52//4 64//4 63//4 50//4
f 41//3 40//3 64//3 65//3
f 54//4 65//4 64//4 52//4
f 42//3 41//3 65//3 66//3
f 56//4 66//4 65//4 54//4
f 43//3 42//3 66//3 67//3
f 58//4 67//4 66//4 56//4
f 44//3 43//3 67//3 68//3
f 60//4 68//4 67//4 58//4
f 18//1 17//1 69//1 70//1
f 70//1 69//1 71//1 72//1
f 72//1 71//1 73//1 74//1
f 74//1 73//1 75//1 76//1
f 76//1 75//1 77//1 78//1
f 78//1 77//1 79//1 80//1
f 80//1 79//1 81//1 82//1
f 82//1 81//1 83//1 84//1
f 85//3 83//3 86//3 87//3
f 84//1 83//1 85//1 88//1
f 89//3 85//3 87//3 90//3
f 88//1 85//1 89//1 91//1
f 91//5 89//5 90//5 92//5
f 93//3 33//3 34//3 94//3
f 17//1 33//1 93//1 69//1
f 95//3 93//3 94//3 96//3
f 69//1 93//1 95//1 71//1
f 97//3 95//3 96//3 98//3
f 71//1 95//1 97//1 73//1
f 99//3 97//3 98//3 100//3
f 73//1 97//1 99//1 75//1
f 101//3 99//3 100//3 102//3
f 75//1 99//1 101//1 77//1
f 103//3 101//3 102//3 104//3
f 77//1 101//1 103//1 79//1
f 105//3 103//3 104//3 106//3
f 79//1 103//1 105//1 81//1
f 107//3 105//3 106//3 108//3
f 81//1 105//1 107//1 83//1
f 83//5 107//5 108//5 86//5
f 109//6 92//6 110//6 111//6
f 92//6 112//6 113//6 110//6
f 114//3 90//3 115//3 116//3
f 92//1 90//1 114//1 112//1
f 113//4 116//4 115//4 110//4
f 112//5 114//5 116//5 113//5
f 94//3 34//3 44//3 117//3
f 96//3 94//3 117//3 118//3
f 98//3 96//3 118//3 119//3
f 100//3 98//3 119//3 120//3
f 102//3 100//3 120//3 121//3
f 104//3 102//3 121//3 122//3
f 106//3 104//3 122//3 123//3
f 108//3 106//3 123//3 124//3
f 125//3 108//3 124//3 126//3
f 86//1 108//1 125//1 87//1
f 127//3 125//3 126//3 128//3
f 87//1 125//1 127//1 90//1
f 90//5 127//5 128//5 115//5
f 129//4 130//4 60//4 59//4
f 131//4 132//4 130//4 129//4
f 133//4 134//4 132//4 131//4
f 135//4 136//4 134//4 133//4
f 137//4 138//4 136//4 135//4
f 139//4 140//4 138//4 137//4
f 141//4 142//4 140//4 139//4
f 143//4 144//4 142//4 141//4
f 145//6 111//6 146//6 143//6
f 146//4 147//4 144//4 143//4
f 111//6 110//6 148//6 146//6
f 148//4 149//4 147//4 146//4
f 110//5 115//5 149//5 148//5
f 117//3 44//3 68//3 150//3
f 130//4 150//4 68//4 60//4
f 118//3 117//3 150//3 151//3
f 132//4 151//4 150//4 130//4
f 119//3 118//3 151//3 152//3
f 134//4 152//4 151//4 132//4
f 120//3 119//3 152//3 153//3
f 136//4 153//4 152//4 134//4
f 121//3 120//3 153//3 154//3
f 138//4 154//4 153//4 136//4
f 122//3 121//3 154//3 155//3
f 140//4 155//4 154//4 138//4
f 123//3 122//3 155//3 156//3
f 142//4 156//4 155//4 140//4
f 124//3 123//3 156//3 157//3
f 144//4 157//4 156//4 142//4
f 126//3 124//3 157//3 158//3
f 147//4 158//4 157//4 144//4
f 128//3 126//3 158//3 159//3
f 149//4 159//4 158//4 147//4
f 115//5 128//5 159//5 149//5
f 160//6 161//6 162//6 163//6
f 160//1 1//1 4//1 161//1
f 160//2 163//2 5//2 1//2
f 161//6 164//6 165//6 162//6
f 161//1 4//1 8//1 164//1
f 164//6 166//6 167//6 165//6
f 164//1 8//1 10//1 166//1
f 166//6 168//6 169//6 167//6
f 166//1 10//1 12//1 168//1
f 168//6 170//6 171//6 169//6
f 168//1 12//1 14//1 170//1
f 170//6 172//6 173//6 171//6
f 170//1 14//1 16//1 172//1
f 172//6 174//6 175//6 173//6
f 172//1 16//1 18//1 174//1
f 163//6 162//6 176//6 177//6
f 163//2 177//2 35//2 5//2
f 162//6 165//6 178//6 176//6
f 165//6 167//6 179//6 178//6
f 167//6 169//6 180//6 179//6
f 169//6 171//6 181//6 180//6
f 171//6 173//6 182//6 181//6
f 173//6 175//6 183//6 182//6
f 177//6 176//6 184//6 185//6
f 184//4 45//4 48//4 185//4
f 177//2 185//2 48//2 35//2
f 176//6 178//6 186//6 184//6
f 186//4 49//4 45//4 184//4
f 178//6 179//6 187//6 186//6
f 187//4 51//4 49//4 186//4
f 179//6 180//6 188//6 187//6
f 188//4 53//4 51//4 187//4
f 180//6 181//6 189//6 188//6
f 189//4 55//4 53//4 188//4
f 181//6 182//6 190//6 189//6
f 190//4 57//4 55//4 189//4
f 182//6 183//6 191//6 190//6
f 191//4 59//4 57//4 190//4
f 174//6 192//6 193//6 175//6
f 174//1 18//1 70//1 192//1
f 192//6 194//6 195//6 193//6
f 192//1 70//1 72//1 194//1
f 194//6 196//6 197//6 195//6
f 194//1 72//1 74//1 196//1
f 196//6 198//6 199//6 197//6
f 196//1 74//1 76//1 198//1
f 198//6 200//6 201//6 199//6
f 198//1 76//1 78//1 200//1
f 200//6 202//6 203//6 201//6
f 200//1 78//1 80//1 202//1
f 202//6 204//6 205//6 203//6
f 202//1 80//1 82//1 204//1
f 204//6 206//6 207//6 205//6
f 204//1 82//1 84//1 206//1
f 206//6 208//6 209//6 207//6
f 206//1 84//1 88//1 208//1
f 208//6 210//6 211//6 209//6
f 208//1 88//1 91//1 210//1
f 211//4 92//4 109//4 209//4
f 210//5 91//5 92//5 211//5
f 175//6 193//6 212//6 183//6
f 193//6 195//6 213//6 212//6
f 195//6 197//6 214//6 213//6
f 197//6 199//6 215//6 214//6
f 199//6 201//6 216//6 215//6
f 201//6 203//6 217//6 216//6
f 203//6 205//6 218//6 217//6
f 205//6 207//6 219//6 218//6
f 207//6 209//6 220//6 219//6
f 220//4 111//4 145//4 219//4
f 209//5 109//5 111//5 220//5
f 183//6 212//6 221//6 191//6
f 221//4 129//4 59//4 191//4
f 212//6 213//6 222//6 221//6
f 222//4 131//4 129//4 221//4
f 213//6 214//6 223//6 222//6
f 223//4 133//4 131//4 222//4
f 214//6 215//6 224//6 223//6
f 224//4 135//4 133//4 223//4
f 215//6 216//6 225//6 224//6
f 225//4 137//4 135//4 224//4
f 216//6 217//6 226//6 225//6
f 226//4 139//4 137//4 225//4
f 217//6 218//6 227//6 226//6
f 227//4 141//4 139//4 226//4
f 218//6 219//6 228//6 227//6
f 228//4 143//4 141//4 227//4
f 219//5 145//5 143//5 228//5
