# Goxel 0.7.2
v 0 -3 0 1.000000 1.000000 1.000000
v 1 -3 0 1.000000 1.000000 1.000000
v 1 -3 1 1.000000 1.000000 1.000000
v 0 -3 1 1.000000 1.000000 1.000000
v 0 -2 0 1.000000 1.000000 1.000000
v 1 -2 0 1.000000 1.000000 1.000000
v 1 -2 1 1.000000 1.000000 1.000000
v 0 -2 1 1.000000 1.000000 1.000000
v 0 -1 0 1.000000 1.000000 1.000000
v 1 -1 0 1.000000 1.000000 1.000000
v 2 -2 0 1.000000 1.000000 1.000000
v 2 -2 1 1.000000 1.000000 1.000000
v 2 -1 0 1.000000 1.000000 1.000000
v 2 -1 1 1.000000 1.000000 1.000000
v 1 -1 1 1.000000 1.000000 1.000000
v 0 0 0 1.000000 1.000000 1.000000
v 1 0 0 1.000000 1.000000 1.000000
v 2 0 0 1.000000 1.000000 1.000000
v 3 -1 0 1.000000 1.000000 1.000000
v 3 -1 1 1.000000 1.000000 1.000000
v 3 0 0 1.000000 1.000000 1.000000
v 3 0 1 1.000000 1.000000 1.000000
v 2 0 1 1.000000 1.000000 1.000000
v 1 -2 2 1.000000 1.000000 1.000000
v 0 -2 2 1.000000 1.000000 1.000000
v 1 -1 2 1.000000 1.000000 1.000000
v 0 -1 2 1.000000 1.000000 1.000000
v 2 -1 2 1.000000 1.000000 1.000000
v 2 0 2 1.000000 1.000000 1.000000
v 1 0 2 1.000000 1.000000 1.000000
v 1 -1 3 1.000000 1.000000 1.000000
v 0 -1 3 1.000000 1.000000 1.000000
v 1 0 3 1.000000 1.000000 1.000000
v 1 -1 4 1.000000 1.000000 1.000000
v 0 -1 4 1.000000 1.000000 1.000000
v 1 0 4 1.000000 1.000000 1.000000
v 1 -1 5 1.000000 1.000000 1.000000
v 0 -1 5 1.000000 1.000000 1.000000
v 1 0 5 1.000000 1.000000 1.000000
v 1 -1 6 1.000000 1.000000 1.000000
v 0 -1 6 1.000000 1.000000 1.000000
v 1 0 6 1.000000 1.000000 1.000000
v 1 -1 7 1.000000 1.000000 1.000000
v 0 -1 7 1.000000 1.000000 1.000000
v 1 0 7 1.000000 1.000000 1.000000
v 1 -1 8 1.000000 1.000000 1.000000
v 0 -1 8 1.000000 1.000000 1.000000
v 1 0 8 1.000000 1.000000 1.000000
v 0 -2 8 1.000000 1.000000 1.000000
v 1 -2 8 1.000000 1.000000 1.000000
v 1 -2 9 1.000000 1.000000 1.000000
v 0 -2 9 1.000000 1.000000 1.000000
v 2 -2 8 1.000000 1.000000 1.000000
v 2 -2 9 1.000000 1.000000 1.000000
v 2 -1 8 1.000000 1.000000 1.000000
v 2 -1 9 1.000000 1.000000 1.000000
v 2 0 8 1.000000 1.000000 1.000000
v 2 0 9 1.000000 1.000000 1.000000
v 1 -2 10 1.000000 1.000000 1.000000
v 0 -2 10 1.000000 1.000000 1.000000
v 2 -2 10 1.000000 1.000000 1.000000
v 2 -1 10 1.000000 1.000000 1.000000
v 2 0 10 1.000000 1.000000 1.000000
v 1 -2 11 1.000000 1.000000 1.000000
v 0 -2 11 1.000000 1.000000 1.000000
v 1 -1 11 1.000000 1.000000 1.000000
v 0 -1 11 1.000000 1.000000 1.000000
v 0 -1 10 1.000000 1.000000 1.000000
v 2 -2 11 1.000000 1.000000 1.000000
v 2 -1 11 1.000000 1.000000 1.000000
v 1 0 11 1.000000 1.000000 1.000000
v 0 0 11 1.000000 1.000000 1.000000
v 0 0 10 1.000000 1.000000 1.000000
v 2 0 11 1.000000 1.000000 1.000000
v 2 -2 12 1.000000 1.000000 1.000000
v 1 -2 12 1.000000 1.000000 1.000000
v 2 -1 12 1.000000 1.000000 1.000000
v 1 -1 12 1.000000 1.000000 1.000000
v 2 0 12 1.000000 1.000000 1.000000
v 1 0 12 1.000000 1.000000 1.000000
v -1 -3 0 1.000000 1.000000 1.000000
v -1 -3 1 1.000000 1.000000 1.000000
v -1 -2 0 1.000000 1.000000 1.000000
v -1 -2 1 1.000000 1.000000 1.000000
v -2 -2 0 1.000000 1.000000 1.000000
v -2 -2 1 1.000000 1.000000 1.000000
v -2 -1 0 1.000000 1.000000 1.000000
v -1 -1 0 1.000000 1.000000 1.000000
v -1 -1 1 1.000000 1.000000 1.000000
v -2 -1 1 1.000000 1.000000 1.000000
v -3 -1 0 1.000000 1.000000 1.000000
v -3 -1 1 1.000000 1.000000 1.000000
v -3 0 0 1.000000 1.000000 1.000000
v -2 0 0 1.000000 1.000000 1.000000
v -2 0 1 1.000000 1.000000 1.000000
v -3 0 1 1.000000 1.000000 1.000000
v -1 0 0 1.000000 1.000000 1.000000
v -1 -2 2 1.000000 1.000000 1.000000
v -1 -1 2 1.000000 1.000000 1.000000
v -2 -1 2 1.000000 1.000000 1.000000
v -1 0 2 1.000000 1.000000 1.000000
v -2 0 2 1.000000 1.000000 1.000000
v -1 -1 3 1.000000 1.000000 1.000000
v -1 0 3 1.000000 1.000000 1.000000
v -1 -1 4 1.000000 1.000000 1.000000
v -1 0 4 1.000000 1.000000 1.000000
v -1 -1 5 1.000000 1.000000 1.000000
v -1 0 5 1.000000 1.000000 1.000000
v -1 -1 6 1.000000 1.000000 1.000000
v -1 0 6 1.000000 1.000000 1.000000
v -1 -1 7 1.000000 1.000000 1.000000
v -1 0 7 1.000000 1.000000 1.000000
v -1 -1 8 1.000000 1.000000 1.000000
v -1 0 8 1.000000 1.000000 1.000000
v -2 -2 8 1.000000 1.000000 1.000000
v -1 -2 8 1.000000 1.000000 1.000000
v -1 -2 9 1.000000 1.000000 1.000000
v -2 -2 9 1.000000 1.000000 1.000000
v -2 -1 8 1.000000 1.000000 1.000000
v -2 -1 9 1.000000 1.000000 1.000000
v -2 0 8 1.000000 1.000000 1.000000
v -1 -1 9 1.000000 1.000000 1.000000
v -1 0 9 1.000000 1.000000 1.000000
v -2 0 9 1.000000 1.000000 1.000000
v -3 -2 9 1.000000 1.000000 1.000000
v -2 -2 10 1.000000 1.000000 1.000000
v -3 -2 10 1.000000 1.000000 1.000000
v -3 -1 9 1.000000 1.000000 1.000000
v -3 -1 10 1.000000 1.000000 1.000000
v -2 -1 10 1.000000 1.000000 1.000000
v -1 -2 10 1.000000 1.000000 1.000000
v -1 -1 10 1.000000 1.000000 1.000000
v -1 0 10 1.000000 1.000000 1.000000
v -2 -2 11 1.000000 1.000000 1.000000
v -3 -2 11 1.000000 1.000000 1.000000
v -3 -1 11 1.000000 1.000000 1.000000
v -2 -1 11 1.000000 1.000000 1.000000
v 0 1 0 1.000000 1.000000 1.000000
v 1 1 0 1.000000 1.000000 1.000000
v 2 1 0 1.000000 1.000000 1.000000
v 3 1 0 1.000000 1.000000 1.000000
v 2 1 1 1.000000 1.000000 1.000000
v 3 1 1 1.000000 1.000000 1.000000
v 0 2 0 1.000000 1.000000 1.000000
v 1 2 0 1.000000 1.000000 1.000000
v 2 2 0 1.000000 1.000000 1.000000
v 1 2 1 1.000000 1.000000 1.000000
v 2 2 1 1.000000 1.000000 1.000000
v 1 1 1 1.000000 1.000000 1.000000
v 1 3 0 1.000000 1.000000 1.000000
v 0 3 0 1.000000 1.000000 1.000000
v 0 3 1 1.000000 1.000000 1.000000
v 1 3 1 1.000000 1.000000 1.000000
v 0 2 1 1.000000 1.000000 1.000000
v 1 1 2 1.000000 1.000000 1.000000
v 2 1 2 1.000000 1.000000 1.000000
v 0 2 2 1.000000 1.000000 1.000000
v 1 2 2 1.000000 1.000000 1.000000
v 0 1 2 1.000000 1.000000 1.000000
v 0 1 3 1.000000 1.000000 1.000000
v 1 1 3 1.000000 1.000000 1.000000
v 0 1 4 1.000000 1.000000 1.000000
v 1 1 4 1.000000 1.000000 1.000000
v 0 1 5 1.000000 1.000000 1.000000
v 1 1 5 1.000000 1.000000 1.000000
v 0 1 6 1.000000 1.000000 1.000000
v 1 1 6 1.000000 1.000000 1.000000
v 0 1 7 1.000000 1.000000 1.000000
v 1 1 7 1.000000 1.000000 1.000000
v 0 1 8 1.000000 1.000000 1.000000
v 1 1 8 1.000000 1.000000 1.000000
v 2 1 8 1.000000 1.000000 1.000000
v 2 1 9 1.000000 1.000000 1.000000
v 1 2 8 1.000000 1.000000 1.000000
v 0 2 8 1.000000 1.000000 1.000000
v 0 2 9 1.000000 1.000000 1.000000
v 1 2 9 1.000000 1.000000 1.000000
v 2 2 8 1.000000 1.000000 1.000000
v 2 2 9 1.000000 1.000000 1.000000
v 2 1 10 1.000000 1.000000 1.000000
v 0 2 10 1.000000 1.000000 1.000000
v 1 2 10 1.000000 1.000000 1.000000
v 2 2 10 1.000000 1.000000 1.000000
v 1 1 11 1.000000 1.000000 1.000000
v 0 1 11 1.000000 1.000000 1.000000
v 0 1 10 1.000000 1.000000 1.000000
v 2 1 11 1.000000 1.000000 1.000000
v 0 2 11 1.000000 1.000000 1.000000
v 1 2 11 1.000000 1.000000 1.000000
v 2 2 11 1.000000 1.000000 1.000000
v 2 1 12 1.000000 1.000000 1.000000
v 1 1 12 1.000000 1.000000 1.000000
v 1 2 12 1.000000 1.000000 1.000000
v 2 2 12 1.000000 1.000000 1.000000
v -2 1 0 1.000000 1.000000 1.000000
v -3 1 0 1.000000 1.000000 1.000000
v -3 1 1 1.000000 1.000000 1.000000
v -2 1 1 1.000000 1.000000 1.000000
v -1 1 0 1.000000 1.000000 1.000000
v -1 2 0 1.000000 1.000000 1.000000
v -2 2 0 1.000000 1.000000 1.000000
v -2 2 1 1.000000 1.000000 1.000000
v -1 2 1 1.000000 1.000000 1.000000
v -1 1 1 1.000000 1.000000 1.000000
v -1 3 0 1.000000 1.000000 1.000000
v -1 3 1 1.000000 1.000000 1.000000
v -2 1 2 1.000000 1.000000 1.000000
v -1 1 2 1.000000 1.000000 1.000000
v -1 2 2 1.000000 1.000000 1.000000
v -1 1 3 1.000000 1.000000 1.000000
v -1 1 4 1.000000 1.000000 1.000000
v -1 1 5 1.000000 1.000000 1.000000
v -1 1 6 1.000000 1.000000 1.000000
v -1 1 7 1.000000 1.000000 1.000000
v -1 1 8 1.000000 1.000000 1.000000
v -2 1 8 1.000000 1.000000 1.000000
v -1 1 9 1.000000 1.000000 1.000000
v -2 1 9 1.000000 1.000000 1.000000
v -1 2 8 1.000000 1.000000 1.000000
v -2 2 8 1.000000 1.000000 1.000000
v -2 2 9 1.000000 1.000000 1.000000
v -1 2 9 1.000000 1.000000 1.000000
v -1 1 10 1.000000 1.000000 1.000000
v -3 1 9 1.000000 1.000000 1.000000
v -2 1 10 1.000000 1.000000 1.000000
v -3 1 10 1.000000 1.000000 1.000000
v -3 2 9 1.000000 1.000000 1.000000
v -3 2 10 1.000000 1.000000 1.000000
v -2 2 10 1.000000 1.000000 1.000000
v -1 2 10 1.000000 1.000000 1.000000
v -2 1 11 1.000000 1.000000 1.000000
v -3 1 11 1.000000 1.000000 1.000000
v -3 2 11 1.000000 1.000000 1.000000
v -2 2 11 1.000000 1.000000 1.000000
vn 0 -1 0
vn 0 0 -1
vn 0 0 1
vn 1 0 0
vn -1 0 0
vn 0 1 0
f 1//1 2//1 3//1 4//1
f 1//2 5//2 6//2 2//2
f 3//3 7//3 8//3 4//3
f 2//4 6//4 7//4 3//4
f 5//2 9//2 10//2 6//2
f 6//1 11//1 12//1 7//1
f 6//2 10//2 13//2 11//2
f 12//3 14//3 15//3 7//3
f 11//4 13//4 14//4 12//4
f 9//2 16//2 17//2 10//2
f 10//2 17//2 18//2 13//2
f 13//1 19//1 20//1 14//1
f 13//2 18//2 21//2 19//2
f 20//3 22//3 23//3 14//3
f 19//4 21//4 22//4 20//4
f 8//1 7//1 24//1 25//1
f 24//3 26//3 27//3 25//3
f 7//4 15//4 26//4 24//4
f 15//1 14//1 28//1 26//1
f 28//3 29//3 30//3 26//3
f 14//4 23//4 29//4 28//4
f 27//1 26//1 31//1 32//1
f 26//4 30//4 33//4 31//4
f 32//1 31//1 34//1 35//1
f 31//4 33//4 36//4 34//4
f 35//1 34//1 37//1 38//1
f 34//4 36//4 39//4 37//4
f 38//1 37//1 40//1 41//1
f 37//4 39//4 42//4 40//4
f 41//1 40//1 43//1 44//1
f 40//4 42//4 45//4 43//4
f 44//1 43//1 46//1 47//1
f 43//4 45//4 48//4 46//4
f 49//1 50//1 51//1 52//1
f 49//2 47//2 46//2 50//2
f 50//1 53//1 54//1 51//1
f 50//2 46//2 55//2 53//2
f 53//4 55//4 56//4 54//4
f 46//2 48//2 57//2 55//2
f 55//4 57//4 58//4 56//4
f 52//1 51//1 59//1 60//1
f 51//1 54//1 61//1 59//1
f 54//4 56//4 62//4 61//4
f 56//4 58//4 63//4 62//4
f 60//1 59//1 64//1 65//1
f 64//3 66//3 67//3 65//3
f 60//5 65//5 67//5 68//5
f 59//1 61//1 69//1 64//1
f 61//4 62//4 70//4 69//4
f 66//3 71//3 72//3 67//3
f 68//5 67//5 72//5 73//5
f 62//4 63//4 74//4 70//4
f 64//1 69//1 75//1 76//1
f 75//3 77//3 78//3 76//3
f 69//4 70//4 77//4 75//4
f 64//5 76//5 78//5 66//5
f 77//3 79//3 80//3 78//3
f 70//4 74//4 79//4 77//4
f 66//5 78//5 80//5 71//5
f 81//1 1//1 4//1 82//1
f 81//2 83//2 5//2 1//2
f 4//3 8//3 84//3 82//3
f 81//5 82//5 84//5 83//5
f 85//1 83//1 84//1 86//1
f 85//2 87//2 88//2 83//2
f 84//3 89//3 90//3 86//3
f 85//5 86//5 90//5 87//5
f 83//2 88//2 9//2 5//2
f 91//1 87//1 90//1 92//1
f 91//2 93//2 94//2 87//2
f 90//3 95//3 96//3 92//3
f 91//5 92//5 96//5 93//5
f 87//2 94//2 97//2 88//2
f 88//2 97//2 16//2 9//2
f 84//1 8//1 25//1 98//1
f 25//3 27//3 99//3 98//3
f 84//5 98//5 99//5 89//5
f 90//1 89//1 99//1 100//1
f 99//3 101//3 102//3 100//3
f 90//5 100//5 102//5 95//5
f 99//1 27//1 32//1 103//1
f 99//5 103//5 104//5 101//5
f 103//1 32//1 35//1 105//1
f 103//5 105//5 106//5 104//5
f 105//1 35//1 38//1 107//1
f 105//5 107//5 108//5 106//5
f 107//1 38//1 41//1 109//1
f 107//5 109//5 110//5 108//5
f 109//1 41//1 44//1 111//1
f 109//5 111//5 112//5 110//5
f 111//1 44//1 47//1 113//1
f 111//5 113//5 114//5 112//5
f 115//1 116//1 117//1 118//1
f 115//2 119//2 113//2 116//2
f 115//5 118//5 120//5 119//5
f 116//1 49//1 52//1 117//1
f 116//2 113//2 47//2 49//2
f 119//2 121//2 114//2 113//2
f 122//3 123//3 124//3 120//3
f 119//5 120//5 124//5 121//5
f 125//1 118//1 126//1 127//1
f 120//6 128//6 129//6 130//6
f 125//2 128//2 120//2 118//2
f 125//5 127//5 129//5 128//5
f 118//1 117//1 131//1 126//1
f 122//6 120//6 130//6 132//6
f 131//3 132//3 130//3 126//3
f 117//1 52//1 60//1 131//1
f 60//3 68//3 132//3 131//3
f 68//3 73//3 133//3 132//3
f 122//5 132//5 133//5 123//5
f 127//1 126//1 134//1 135//1
f 130//6 129//6 136//6 137//6
f 134//3 137//3 136//3 135//3
f 126//4 130//4 137//4 134//4
f 127//5 135//5 136//5 129//5
f 16//2 138//2 139//2 17//2
f 17//2 139//2 140//2 18//2
f 141//6 140//6 142//6 143//6
f 18//2 140//2 141//2 21//2
f 22//3 143//3 142//3 23//3
f 21//4 141//4 143//4 22//4
f 138//2 144//2 145//2 139//2
f 146//6 145//6 147//6 148//6
f 139//2 145//2 146//2 140//2
f 142//3 148//3 147//3 149//3
f 140//4 146//4 148//4 142//4
f 150//6 151//6 152//6 153//6
f 144//2 151//2 150//2 145//2
f 147//3 153//3 152//3 154//3
f 145//4 150//4 153//4 147//4
f 142//6 149//6 155//6 156//6
f 29//3 156//3 155//3 30//3
f 23//4 142//4 156//4 29//4
f 147//6 154//6 157//6 158//6
f 155//3 158//3 157//3 159//3
f 149//4 147//4 158//4 155//4
f 155//6 159//6 160//6 161//6
f 30//4 155//4 161//4 33//4
f 161//6 160//6 162//6 163//6
f 33//4 161//4 163//4 36//4
f 163//6 162//6 164//6 165//6
f 36//4 163//4 165//4 39//4
f 165//6 164//6 166//6 167//6
f 39//4 165//4 167//4 42//4
f 167//6 166//6 168//6 169//6
f 42//4 167//4 169//4 45//4
f 169//6 168//6 170//6 171//6
f 45//4 169//4 171//4 48//4
f 48//2 171//2 172//2 57//2
f 57//4 172//4 173//4 58//4
f 174//6 175//6 176//6 177//6
f 170//2 175//2 174//2 171//2
f 178//6 174//6 177//6 179//6
f 171//2 174//2 178//2 172//2
f 172//4 178//4 179//4 173//4
f 58//4 173//4 180//4 63//4
f 177//6 176//6 181//6 182//6
f 179//6 177//6 182//6 183//6
f 173//4 179//4 183//4 180//4
f 71//3 184//3 185//3 72//3
f 73//5 72//5 185//5 186//5
f 63//4 180//4 187//4 74//4
f 182//6 181//6 188//6 189//6
f 184//3 189//3 188//3 185//3
f 186//5 185//5 188//5 181//5
f 183//6 182//6 189//6 190//6
f 180//4 183//4 190//4 187//4
f 79//3 191//3 192//3 80//3
f 74//4 187//4 191//4 79//4
f 71//5 80//5 192//5 184//5
f 190//6 189//6 193//6 194//6
f 191//3 194//3 193//3 192//3
f 187//4 190//4 194//4 191//4
f 184//5 192//5 193//5 189//5
f 195//6 196//6 197//6 198//6
f 93//2 196//2 195//2 94//2
f 95//3 198//3 197//3 96//3
f 93//5 96//5 197//5 196//5
f 94//2 195//2 199//2 97//2
f 97//2 199//2 138//2 16//2
f 200//6 201//6 202//6 203//6
f 195//2 201//2 200//2 199//2
f 204//3 203//3 202//3 198//3
f 195//5 198//5 202//5 201//5
f 199//2 200//2 144//2 138//2
f 151//6 205//6 206//6 152//6
f 200//2 205//2 151//2 144//2
f 154//3 152//3 206//3 203//3
f 200//5 203//5 206//5 205//5
f 204//6 198//6 207//6 208//6
f 101//3 208//3 207//3 102//3
f 95//5 102//5 207//5 198//5
f 154//6 203//6 209//6 157//6
f 159//3 157//3 209//3 208//3
f 204//5 208//5 209//5 203//5
f 159//6 208//6 210//6 160//6
f 101//5 104//5 210//5 208//5
f 160//6 210//6 211//6 162//6
f 104//5 106//5 211//5 210//5
f 162//6 211//6 212//6 164//6
f 106//5 108//5 212//5 211//5
f 164//6 212//6 213//6 166//6
f 108//5 110//5 213//5 212//5
f 166//6 213//6 214//6 168//6
f 110//5 112//5 214//5 213//5
f 168//6 214//6 215//6 170//6
f 112//5 114//5 215//5 214//5
f 121//2 216//2 215//2 114//2
f 123//3 217//3 218//3 124//3
f 121//5 124//5 218//5 216//5
f 219//6 220//6 221//6 222//6
f 216//2 220//2 219//2 215//2
f 216//5 218//5 221//5 220//5
f 175//6 219//6 222//6 176//6
f 215//2 219//2 175//2 170//2
f 73//3 186//3 223//3 133//3
f 123//5 133//5 223//5 217//5
f 224//1 218//1 225//1 226//1
f 221//6 227//6 228//6 229//6
f 224//2 227//2 221//2 218//2
f 224//5 226//5 228//5 227//5
f 218//1 217//1 223//1 225//1
f 222//6 221//6 229//6 230//6
f 223//3 230//3 229//3 225//3
f 176//6 222//6 230//6 181//6
f 186//3 181//3 230//3 223//3
f 226//1 225//1 231//1 232//1
f 229//6 228//6 233//6 234//6
f 231//3 234//3 233//3 232//3
f 225//4 229//4 234//4 231//4
f 226//5 232//5 233//5 228//5
